<?xml version="1.0" standalone="no"?>
<!DOCTYPE svg PUBLIC "-//W3C//DTD SVG 20010904//EN"
 "http://www.w3.org/TR/2001/REC-SVG-20010904/DTD/svg10.dtd">
<svg version="1.0" xmlns="http://www.w3.org/2000/svg"
 width="300.000000pt" height="453.000000pt" viewBox="0 0 300.000000 453.000000"
 preserveAspectRatio="xMidYMid meet">
<metadata>
Created by potrace 1.10, written by Peter Selinger 2001-2011
</metadata>
<g transform="translate(0.000000,453.000000) scale(0.100000,-0.100000)"
fill="#000000" stroke="none">
<path d="M1667 4445 c-287 -55 -500 -230 -588 -485 -18 -53 -22 -87 -23 -185
0 -67 5 -132 11 -146 10 -24 8 -30 -24 -60 -43 -42 -63 -79 -63 -117 0 -41 61
-94 125 -111 28 -7 56 -15 63 -17 6 -2 12 -11 12 -20 0 -55 113 -214 153 -214
6 0 28 -17 48 -38 20 -21 58 -49 85 -61 59 -28 223 -71 271 -71 40 0 36 -15
-6 -23 -41 -8 -107 -71 -136 -127 -26 -51 -58 -165 -52 -183 2 -6 11 19 21 57
18 72 51 145 84 186 30 37 38 17 9 -22 -27 -35 -41 -64 -63 -136 -7 -23 -9
-40 -4 -37 6 4 10 12 10 18 0 7 15 44 34 83 53 111 118 174 180 174 19 0 27
-8 36 -35 15 -46 49 -69 81 -56 15 6 18 10 8 10 -23 1 -69 50 -69 72 0 14 7
19 25 19 33 0 130 37 145 55 33 40 36 -22 3 -73 -8 -13 -12 -26 -10 -29 6 -5
44 59 73 120 17 36 34 49 34 25 0 -6 7 -4 18 5 27 24 35 21 17 -7 l-16 -24 35
12 c20 7 39 15 42 19 4 4 21 7 38 7 44 -1 52 5 -271 -186 -17 -11 -78 -48
-135 -83 -57 -35 -141 -88 -188 -116 -79 -49 -747 -453 -761 -461 -14 -8 13
83 36 123 54 91 220 202 395 263 78 28 98 42 41 29 -102 -23 -255 -93 -338
-156 -92 -69 -153 -168 -153 -248 0 -15 -14 -32 -41 -50 l-42 -27 5 65 c17
210 216 384 598 522 129 46 98 44 -47 -4 -313 -102 -506 -253 -558 -435 -11
-37 -15 -76 -12 -105 l5 -46 -89 -54 c-49 -29 -89 -56 -89 -58 0 -2 11 -24 25
-48 l26 -43 92 57 c51 32 111 69 134 82 23 13 68 40 100 60 122 75 437 267
663 404 129 78 270 163 313 189 43 27 80 46 83 43 3 -3 -1 -16 -9 -29 -8 -12
-24 -56 -36 -95 -47 -158 -188 -223 -243 -113 -14 27 -18 30 -18 14 0 -36 38
-73 81 -80 32 -5 39 -10 33 -23 -22 -53 -13 -53 42 0 82 78 141 122 199 152
44 22 58 24 120 18 39 -4 77 -10 85 -14 8 -5 6 -1 -4 7 -11 9 -29 16 -40 16
-24 0 -11 16 19 23 11 3 -2 5 -28 6 -27 0 -46 -3 -43 -8 3 -4 -5 -6 -17 -4
-12 2 -40 -5 -61 -16 -22 -12 -41 -19 -43 -17 -2 2 1 15 6 29 21 55 177 76
259 33 38 -20 40 -39 13 -117 -44 -129 -96 -170 -270 -210 -68 -16 -88 -24
-84 -35 3 -8 8 -14 12 -14 3 0 7 -20 7 -45 1 -40 -1 -45 -20 -45 -14 0 -22 -6
-22 -17 0 -15 9 -18 46 -18 l45 0 -2 42 -2 43 90 46 c64 33 108 65 154 112 35
36 62 68 60 72 -3 4 5 16 17 26 11 11 29 33 39 49 l19 30 0 -69 c0 -55 6 -82
28 -130 16 -34 34 -92 41 -129 13 -64 12 -71 -6 -95 -11 -15 -29 -31 -39 -37
-11 -5 -35 -22 -55 -37 -39 -31 -128 -72 -136 -65 -3 3 12 17 34 30 43 28 103
90 103 109 0 6 -16 -7 -36 -30 -42 -49 -132 -95 -221 -112 -83 -16 -218 -9
-263 15 l-35 18 24 -27 24 -26 -29 -1 c-66 -2 -120 3 -132 13 -16 13 -7 23 21
23 11 0 22 6 25 13 3 9 -3 13 -19 10 -33 -4 -71 62 -67 119 4 49 -2 53 -69 53
-29 0 -58 -8 -79 -21 -31 -19 -50 -39 -21 -23 6 4 8 3 4 -1 -17 -19 -37 -12
-43 13 -10 45 -15 49 -8 7 3 -22 6 -48 7 -59 2 -16 -28 -26 -228 -78 -126 -33
-332 -88 -457 -122 -212 -59 -228 -62 -228 -43 0 33 -42 97 -79 120 -45 27
-123 29 -167 3 -17 -10 -43 -37 -58 -60 -23 -34 -27 -49 -23 -91 2 -27 8 -57
11 -66 6 -14 -12 -23 -105 -54 -135 -45 -153 -60 -144 -118 15 -87 61 -147
113 -147 26 0 1157 412 1359 495 23 10 35 11 39 3 10 -16 139 -4 170 16 24 17
26 17 39 -1 10 -14 33 -19 102 -25 48 -3 129 -9 178 -13 114 -9 236 18 340 74
86 47 131 60 121 36 -3 -9 -6 -25 -6 -35 0 -10 -6 -20 -12 -22 -10 -2 -11 -20
-7 -68 3 -36 6 -52 7 -36 2 28 14 30 18 3 10 -74 25 -259 20 -264 -7 -7 -12 9
-21 61 -3 21 -9 36 -12 33 -3 -3 0 -27 5 -54 20 -91 27 -199 27 -398 -1 -110
1 -190 3 -177 2 12 8 22 13 22 21 0 -10 -535 -36 -601 -3 -9 1 -22 10 -29 27
-22 18 -56 -19 -74 -55 -26 -170 -16 -204 18 -14 13 -14 20 0 63 17 52 18 36
-23 263 -5 30 -12 123 -15 205 l-4 150 19 -40 c29 -59 25 -24 -5 52 -15 37
-24 75 -21 90 3 15 0 40 -6 57 -6 17 -27 104 -47 194 -25 113 -33 165 -26 171
21 18 119 52 133 47 9 -4 11 -1 7 6 -5 8 -2 9 9 5 9 -3 33 0 54 8 47 17 45 17
-54 5 -46 -6 -112 -23 -153 -40 -40 -17 -81 -30 -91 -30 -26 0 -89 32 -83 42
3 4 -3 5 -12 1 -11 -4 -15 -3 -11 4 4 7 -10 18 -35 27 -24 8 -67 25 -97 36
-30 11 -56 18 -58 16 -4 -4 72 -55 142 -96 l40 -23 -24 26 c-24 27 -24 27 -3
27 12 0 22 -5 22 -11 0 -6 15 -29 34 -50 27 -29 35 -34 38 -21 2 13 10 16 35
12 l32 -5 -29 -35 c-25 -29 -31 -32 -40 -20 -8 13 -10 13 -10 -2 0 -10 -35
-98 -78 -195 -44 -98 -84 -193 -90 -212 -16 -45 -53 -96 -111 -149 -26 -25
-36 -38 -23 -32 49 24 38 -5 -42 -115 -28 -38 -77 -99 -108 -134 -32 -36 -58
-73 -58 -82 0 -68 -135 -38 -166 38 -16 38 -19 87 -4 78 6 -3 7 1 4 9 -3 9 -2
16 4 16 5 0 20 28 32 63 45 124 118 265 160 311 50 54 64 58 55 16 -4 -19 -3
-30 4 -30 6 0 11 -13 11 -29 0 -16 9 -50 20 -76 11 -26 21 -59 21 -73 2 -23 2
-24 6 -5 2 12 0 38 -6 57 -10 37 -4 45 17 24 17 -17 15 -9 -13 46 -14 27 -25
56 -25 63 0 8 -5 11 -10 8 -12 -8 -12 61 0 90 7 16 9 12 11 -20 1 -22 6 77 9
220 6 208 11 280 29 362 11 56 24 110 27 120 5 16 4 16 -5 1 -36 -54 -76 -375
-70 -553 4 -101 -12 -154 -55 -182 -18 -11 -49 -45 -68 -75 -33 -49 -138 -273
-138 -293 0 -5 -11 -25 -25 -45 -21 -31 -23 -41 -15 -69 6 -22 6 -40 0 -52 -6
-10 -10 -30 -10 -46 0 -28 -26 -164 -32 -166 -44 -22 -64 -36 -66 -51 -3 -16
1 -14 31 8 l36 27 3 -48 c3 -45 4 -42 26 58 12 58 22 125 22 147 0 49 6 51 39
16 13 -14 37 -32 52 -40 30 -15 49 -62 49 -120 0 -17 7 -51 15 -74 8 -23 15
-48 15 -56 0 -48 -94 -60 -154 -19 -38 26 -39 18 -3 -22 17 -19 31 -23 79 -23
32 0 75 7 94 15 26 11 34 11 32 2 -7 -19 -55 -38 -111 -43 -65 -6 -109 18
-128 70 -7 20 -17 36 -21 36 -15 0 31 -78 58 -99 30 -23 77 -27 139 -10 80 22
89 49 54 159 -27 88 -36 212 -18 248 8 15 56 77 108 137 90 106 197 255 253
353 15 26 48 99 74 162 25 63 62 148 81 188 41 84 108 166 117 142 16 -46 79
-352 81 -390 1 -25 4 -54 8 -66 4 -12 9 -97 10 -190 2 -126 9 -201 27 -296 21
-112 22 -133 12 -176 -7 -26 -10 -56 -6 -66 6 -17 1 -18 -74 -15 -50 3 -81 0
-82 -6 0 -6 29 -10 66 -10 l66 0 -28 -20 c-52 -37 -94 -83 -94 -104 0 -42 41
-55 150 -47 114 7 195 33 231 73 l24 27 -33 -27 c-43 -35 -117 -56 -222 -63
-92 -7 -140 5 -140 32 0 14 2 15 17 3 12 -10 45 -14 117 -13 109 2 167 17 222
59 17 13 35 21 39 17 4 -4 5 12 1 36 -3 24 -3 49 1 55 5 7 8 37 9 67 0 30 8
132 18 225 14 136 16 220 11 420 -7 295 -21 568 -35 680 -5 44 -13 117 -16
163 l-7 83 33 34 c29 30 33 40 32 88 0 36 -11 83 -34 143 -48 125 -56 162 -62
299 -7 132 -25 224 -57 286 -11 23 -19 42 -17 44 13 12 372 225 379 225 5 0 9
-4 9 -10 0 -5 4 -10 8 -10 8 0 35 111 28 117 -6 6 -111 31 -115 27 -2 -2 1
-10 8 -18 9 -11 8 -15 -4 -19 -8 -4 -101 -59 -207 -123 -189 -115 -192 -117
-226 -104 -23 8 -56 10 -99 5 l-65 -7 50 69 c63 85 68 90 131 136 38 27 62 37
89 37 54 0 109 41 138 103 75 163 -29 616 -191 833 -132 176 -227 223 -465
230 -92 2 -160 -1 -213 -11z m142 -35 c50 -23 60 -25 43 -8 -23 23 -11 27 66
22 155 -10 263 -53 334 -134 56 -62 106 -142 136 -214 13 -34 29 -72 35 -86 6
-14 11 -27 12 -30 3 -9 27 -64 35 -81 22 -44 56 -314 51 -408 -3 -66 -68 -144
-126 -152 -51 -8 -73 9 -109 84 -37 77 -76 211 -76 261 0 28 -1 29 -16 14 -14
-14 -14 -22 6 -93 12 -42 20 -79 17 -81 -8 -8 -59 106 -53 121 4 13 2 14 -14
5 -20 -10 -20 -11 -1 -61 11 -28 37 -74 59 -102 21 -29 49 -71 60 -95 20 -39
21 -45 8 -77 -8 -19 -25 -50 -39 -69 -18 -27 -26 -33 -35 -24 -9 9 -12 8 -12
-3 0 -8 -14 -37 -31 -65 -18 -27 -30 -50 -28 -52 2 -1 -8 -18 -23 -36 -41 -51
-160 -107 -240 -113 -77 -6 -243 19 -342 53 -89 30 -134 66 -171 140 -17 32
-48 76 -69 96 -35 34 -71 87 -64 94 2 1 49 4 105 5 100 3 103 2 123 -24 27
-34 106 -81 125 -74 7 3 21 20 30 37 12 24 13 35 4 52 -11 20 -12 19 -25 -17
-12 -36 -28 -55 -48 -55 -5 0 -3 7 4 15 8 9 11 30 7 54 l-5 38 47 6 c25 3 87
19 136 35 50 17 91 29 92 28 2 -1 4 -18 7 -37 2 -24 13 -42 37 -61 32 -25 37
-26 82 -17 26 6 47 14 47 18 0 10 80 44 87 38 9 -10 -8 -27 -27 -27 -19 0 -36
-17 -27 -27 7 -6 86 48 112 77 l20 23 -25 -6 c-14 -4 -31 -7 -38 -7 -7 0 -10
-5 -6 -12 4 -7 3 -8 -5 -4 -6 4 -23 1 -36 -8 -39 -25 -43 -20 -38 48 4 43 2
66 -7 71 -8 5 -11 -3 -10 -31 4 -76 0 -102 -19 -125 -26 -32 -35 -20 -15 19
13 26 13 38 4 67 -6 19 -16 37 -21 40 -12 8 -12 25 1 25 6 0 29 12 53 27 23
15 47 26 53 25 17 -3 81 81 65 86 -8 3 -2 16 21 41 18 20 9 14 -19 -13 -29
-27 -49 -54 -46 -59 3 -6 1 -7 -5 -3 -7 4 -27 -4 -44 -17 -147 -110 -495 -207
-744 -207 -145 0 -274 48 -274 101 0 27 23 70 50 94 20 17 19 15 -4 -20 -39
-57 -32 -84 29 -115 48 -24 58 -25 225 -24 142 0 194 4 280 23 106 23 303 83
330 101 21 14 -1 12 -46 -3 -77 -27 -94 -29 -95 -10 0 12 -4 9 -10 -9 -6 -15
-18 -29 -27 -32 -39 -11 -244 -46 -333 -56 -139 -16 -339 12 -339 47 0 8 -4
11 -10 8 -17 -11 -11 23 12 68 l22 42 146 -1 145 -2 -121 7 c-131 7 -149 14
-156 61 -5 33 7 42 37 28 11 -6 5 3 -13 18 -29 26 -33 36 -39 94 -7 80 13 167
62 265 65 133 172 238 313 309 109 55 142 58 41 5 -75 -41 -197 -153 -250
-231 -83 -121 -147 -297 -137 -374 4 -28 4 -27 15 11 7 22 19 69 29 105 25 99
76 200 139 280 35 43 113 120 123 120 6 0 12 7 15 15 12 31 146 108 219 126
94 23 104 23 157 -1z m79 -1001 c-4 -28 -26 -31 -42 -6 -9 15 -7 21 8 33 24
17 39 5 34 -27z m48 -64 c-18 -27 -54 -33 -74 -13 -21 21 -13 29 13 12 24 -16
27 -16 45 1 11 10 21 28 21 39 1 18 2 18 6 3 3 -10 -3 -29 -11 -42z m-446 -26
c0 -14 -5 -19 -17 -17 -23 4 -28 25 -6 31 10 3 19 5 21 6 1 0 2 -8 2 -20z
m1292 -74 c0 -7 -275 -185 -288 -185 -4 0 -56 -36 -114 -79 -25 -18 -70 -46
-100 -62 -30 -17 -90 -51 -133 -77 -42 -26 -144 -87 -225 -136 -81 -49 -154
-95 -162 -101 -8 -7 -31 -22 -50 -33 -115 -65 -362 -209 -465 -272 -66 -40
-132 -80 -147 -89 -15 -9 -67 -40 -115 -70 -227 -139 -283 -169 -290 -159 -3
7 2 18 13 25 26 19 219 138 324 200 138 81 502 303 545 333 85 58 182 119 215
135 19 10 71 41 115 70 101 65 164 103 240 145 33 19 74 44 90 56 17 12 57 36
90 52 61 31 402 236 420 253 12 12 36 8 37 -6z m-1494 -87 c8 -10 11 -18 6
-18 -11 0 -50 56 -60 85 -3 11 4 4 16 -15 12 -19 29 -43 38 -52z m1126 -285
c33 -142 37 -165 31 -171 -3 -3 -22 4 -43 16 -36 21 -37 22 -40 89 -4 92 -18
101 -18 11 l1 -73 -70 -1 c-52 0 -80 -6 -110 -23 -27 -15 -32 -20 -15 -16 120
27 183 25 250 -10 65 -34 76 -122 24 -185 -37 -43 -45 -37 -24 18 9 26 20 62
23 79 6 31 4 34 -36 55 -65 33 -169 36 -235 8 -52 -23 -102 -69 -102 -95 0 -8
-5 -17 -11 -21 -14 -8 -3 49 18 91 8 17 17 50 20 75 3 25 6 46 6 46 23 16 304
184 308 184 3 0 14 -35 23 -77z m-259 -588 c-22 -13 -46 -29 -53 -35 -7 -6
-17 -8 -22 -5 -6 3 -10 -4 -10 -17 -1 -21 -2 -21 -11 -5 -6 9 -7 26 -4 37 4
13 2 20 -7 21 -16 2 99 26 127 28 14 0 8 -7 -20 -24z m-451 -114 c3 -5 -18
-15 -47 -21 -28 -7 -60 -17 -69 -22 -11 -5 -18 -5 -18 0 0 18 32 36 73 43 23
3 45 7 49 8 4 0 9 -3 12 -8z m13 -41 c-3 -11 -2 -20 2 -20 11 0 44 -80 36 -88
-9 -10 -45 36 -45 58 0 26 -28 46 -43 31 -9 -10 -9 -12 2 -9 27 6 56 -82 32
-96 -12 -8 -28 13 -38 53 -12 45 -30 56 -68 40 -16 -7 -33 -12 -37 -11 -4 1
-10 -21 -14 -48 -4 -27 -11 -47 -16 -44 -5 3 -7 13 -4 21 7 18 15 20 -244 -69
-225 -77 -640 -231 -668 -247 -62 -37 87 13 363 120 28 10 57 19 66 19 8 0 19
4 25 9 5 4 45 20 89 35 44 15 89 30 100 35 50 21 119 41 110 32 -10 -9 -61
-29 -240 -96 -55 -20 -134 -49 -175 -65 -41 -16 -122 -46 -180 -68 -58 -22
-116 -43 -130 -47 -14 -4 -49 -21 -79 -36 -30 -16 -86 -38 -125 -50 -39 -11
-112 -36 -163 -55 -51 -19 -100 -34 -109 -34 -18 0 -64 37 -64 52 0 4 28 8 63
8 68 0 160 19 192 39 23 14 29 15 -113 -15 -103 -22 -154 -11 -170 36 -14 39
-6 44 129 89 l111 37 24 -35 c13 -20 24 -43 24 -52 0 -44 86 -67 142 -38 26
13 78 59 78 69 0 4 -37 -8 -82 -26 -96 -39 -114 -41 -121 -15 -7 27 0 31 55
31 27 0 65 7 85 15 19 8 43 15 53 15 19 0 30 27 29 75 l0 30 -19 -37 c-25 -46
-69 -78 -117 -84 l-38 -5 36 21 c64 39 85 100 54 160 -29 57 -90 63 -174 18
-22 -12 -44 -19 -47 -15 -14 13 31 89 65 113 26 18 49 24 88 24 50 0 53 -2 69
-35 9 -19 20 -35 25 -35 4 0 20 -11 34 -25 18 -18 25 -37 25 -63 0 -22 3 -32
8 -24 10 15 193 71 576 174 165 44 345 95 400 113 121 41 140 43 133 15z m-69
-72 c6 -18 13 -41 17 -50 6 -15 2 -18 -19 -18 -26 0 -29 4 -39 73 -6 41 29 37
41 -5z m-54 5 c18 -64 17 -79 -4 -79 -24 0 -36 32 -26 71 7 29 22 33 30 8z
m-1109 -185 c24 -19 27 -26 22 -67 -5 -44 -15 -57 -83 -111 -13 -9 -60 16 -84
45 -8 10 -22 36 -31 58 l-16 41 56 28 c68 33 100 35 136 6z m1855 -1494 c32
-13 40 -21 38 -38 -6 -45 -132 -73 -203 -46 -23 9 -25 13 -14 26 16 19 109 74
126 74 7 0 31 -7 53 -16z m148 -12 c16 -11 -10 -35 -61 -57 l-38 -15 7 27 c8
35 13 40 44 46 14 2 27 5 30 5 3 1 11 -2 18 -6z"/>
<path d="M1635 3286 c-20 -31 -35 -83 -35 -123 0 -29 3 -33 37 -39 33 -6 40
-3 65 25 15 17 28 39 28 47 0 17 -6 15 -55 -27 -11 -9 -31 -20 -44 -24 -24 -7
-24 -6 -18 39 4 25 16 64 27 86 22 44 19 54 -5 16z"/>
<path d="M1962 3287 c-12 -7 -30 -24 -39 -37 -15 -24 -15 -23 13 3 35 31 49
34 63 10 11 -20 15 -4 5 21 -7 19 -12 19 -42 3z"/>
<path d="M1725 3275 c28 -9 66 -17 85 -19 19 -2 24 -1 10 1 -14 3 -29 8 -35
13 -5 4 -32 11 -60 14 l-50 6 50 -15z"/>
<path d="M1906 3181 c-66 -95 -121 -132 -200 -138 -39 -2 -46 -1 -31 7 19 9
19 10 -3 7 -44 -4 -26 -22 25 -25 44 -3 65 3 125 32 39 20 77 36 84 36 7 0 29
15 49 34 32 31 36 39 33 77 -2 23 -8 44 -14 46 -7 2 -37 -32 -68 -76z m68 26
c-10 -46 -30 -73 -69 -91 -45 -21 -53 -20 -23 4 14 10 38 44 54 74 30 58 50
65 38 13z"/>
<path d="M1864 3051 c-30 -18 -52 -41 -40 -41 3 0 20 9 38 20 18 11 41 20 51
20 9 0 17 5 17 10 0 16 -32 12 -66 -9z"/>
<path d="M953 1906 c-183 -55 -336 -105 -340 -109 -4 -5 6 -5 22 -1 63 15 668
204 674 210 11 11 -49 -6 -356 -100z"/>
<path d="M235 1694 l-40 -13 40 5 c42 6 85 24 55 23 -8 0 -33 -7 -55 -15z"/>
<path d="M1747 2798 c-26 -61 -30 -95 -12 -95 10 0 15 10 15 26 0 14 4 42 10
60 13 46 5 52 -13 9z"/>
<path d="M1743 2485 c0 -33 2 -45 4 -27 2 18 2 45 0 60 -2 15 -4 0 -4 -33z"/>
<path d="M2300 2484 c-7 -8 -47 -38 -89 -66 -42 -28 -68 -48 -58 -44 44 15
189 126 165 126 -3 0 -11 -7 -18 -16z"/>
<path d="M1615 2450 c11 -5 31 -9 45 -9 14 -1 35 -8 47 -16 19 -14 21 -13 16
4 -6 22 -32 31 -88 30 -31 0 -36 -2 -20 -9z"/>
<path d="M2415 2372 c0 -67 -4 -86 -33 -145 -25 -50 -45 -75 -78 -98 -25 -17
-44 -33 -41 -35 7 -7 133 54 148 72 12 15 12 16 -8 10 l-21 -7 23 73 c29 93
38 171 22 192 -10 13 -12 1 -12 -62z"/>
<path d="M1547 2406 c-21 -8 -47 -22 -57 -31 -14 -13 -19 -13 -23 -3 -3 7 -6
1 -6 -13 -1 -15 8 -38 19 -52 11 -14 20 -35 20 -46 0 -12 5 -21 10 -21 6 0 10
8 10 19 0 10 9 30 21 45 16 21 29 26 64 26 35 0 45 -4 50 -21 4 -11 9 -18 11
-16 3 2 -1 16 -7 31 -9 19 -20 26 -42 26 -36 0 -82 -26 -96 -54 -8 -18 -10
-13 -10 25 -1 40 2 47 24 57 36 17 119 15 162 -3 40 -17 52 -13 34 9 -12 14
-93 36 -129 36 -9 -1 -34 -7 -55 -14z"/>
<path d="M1749 2387 c-3 -21 -1 -40 3 -43 4 -3 8 -20 8 -37 l-1 -32 -20 28
c-11 15 -25 27 -29 27 -5 0 2 -12 15 -26 14 -15 25 -34 25 -42 0 -8 10 0 23
19 34 51 62 50 165 -4 12 -6 22 -18 22 -25 0 -7 -4 -10 -10 -7 -6 4 -11 -9
-12 -32 -2 -56 -2 -66 7 -87 7 -17 5 -18 -18 -12 -21 5 -25 3 -21 -9 10 -25
-25 -30 -42 -6 -22 30 -35 26 -18 -6 12 -25 12 -28 -1 -31 -9 -2 -24 7 -35 20
-23 27 -27 12 -4 -20 16 -23 48 -29 59 -12 4 6 10 8 15 5 13 -8 89 34 100 55
15 28 12 40 -7 33 -13 -5 -15 -2 -8 18 4 13 8 37 10 53 1 17 7 32 13 34 20 6
13 47 -10 70 -25 23 -83 49 -73 32 3 -6 2 -10 -4 -10 -5 0 -11 6 -14 13 -3 9
-7 9 -17 0 -10 -9 -7 -13 16 -18 44 -9 94 -33 94 -45 0 -14 -4 -13 -43 10 -51
30 -122 41 -141 22 -21 -21 -24 -16 -34 49 -8 54 -8 54 -13 16z"/>
<path d="M1781 2269 c-12 -19 -21 -38 -21 -44 0 -5 -5 -3 -10 5 -5 8 -10 11
-10 5 0 -5 4 -16 9 -24 6 -10 16 -2 36 33 15 26 25 49 22 53 -3 3 -15 -10 -26
-28z"/>
<path d="M2412 1887 c-28 -49 -75 -99 -132 -140 -19 -13 -16 -13 18 3 44 22
124 113 141 162 15 42 6 34 -27 -25z"/>
<path d="M2465 1831 c-8 -16 -27 -39 -41 -50 -34 -27 -27 -36 10 -13 16 10 34
33 41 55 15 44 11 48 -10 8z"/>
<path d="M2463 1570 c0 -36 3 -96 7 -135 6 -61 7 -64 7 -20 1 28 -2 88 -6 135
-8 83 -8 83 -8 20z"/>
<path d="M1853 1405 c-99 -166 -109 -187 -93 -195 15 -8 17 -6 13 8 -3 14 42
104 97 192 40 64 100 173 97 176 -2 3 -54 -79 -114 -181z"/>
<path d="M2484 1250 c0 -52 1 -74 3 -47 2 26 2 68 0 95 -2 26 -3 4 -3 -48z"/>
<path d="M2466 1108 c-3 -18 -15 -50 -26 -71 -25 -47 -26 -61 -1 -23 21 31 47
113 39 122 -3 3 -8 -10 -12 -28z"/>
<path d="M2292 1089 c4 -9 16 -46 27 -83 25 -82 36 -103 61 -116 22 -12 65 5
89 34 19 22 5 20 -29 -5 -16 -12 -35 -19 -44 -16 -21 8 -45 47 -53 87 l-6 35
27 -19 c15 -9 29 -16 30 -14 1 2 -23 28 -53 58 -30 30 -52 48 -49 39z"/>
<path d="M2522 1048 c-6 -6 -12 -23 -12 -37 l1 -26 15 28 c17 32 15 54 -4 35z"/>
<path d="M1613 902 c-11 -20 -48 -68 -82 -106 -35 -39 -61 -78 -61 -90 1 -17
4 -16 18 11 9 17 36 52 59 78 43 46 99 132 92 140 -3 2 -14 -13 -26 -33z"/>
<path d="M2513 855 c0 -33 2 -45 4 -27 2 18 2 45 0 60 -2 15 -4 0 -4 -33z"/>
<path d="M1335 739 c-4 -6 -5 -11 -4 -13 2 -1 21 -14 42 -30 21 -15 39 -26 40
-25 1 2 -15 21 -35 42 -22 22 -39 33 -43 26z"/>
<path d="M2466 599 c-18 -77 -18 -81 -1 -97 16 -16 17 -16 7 3 -10 22 -9 32 8
106 7 27 10 53 8 59 -1 5 -12 -27 -22 -71z"/>
<path d="M1983 491 l-17 -29 -27 20 c-15 11 -33 18 -41 15 -8 -3 -3 -9 15 -17
15 -7 27 -17 27 -22 0 -5 -9 -4 -19 2 -25 13 -71 13 -71 0 0 -5 13 -10 29 -10
17 0 33 -4 36 -10 4 -7 -54 -10 -167 -10 -178 0 -231 -6 -206 -21 7 -5 89 -9
181 -9 154 0 171 2 198 21 16 11 48 21 71 23 24 1 59 11 78 21 32 18 33 20 12
23 -13 2 -35 -4 -48 -13 -33 -21 -40 -14 -19 19 16 24 16 26 1 26 -9 0 -24
-13 -33 -29z"/>
<path d="M1132 470 c-6 -11 -12 -29 -12 -40 0 -20 -1 -20 -22 -6 -12 9 -34 16
-48 15 -24 -1 -23 -1 8 -15 17 -8 32 -15 32 -17 0 -2 -16 -3 -35 -3 -19 0 -41
-6 -47 -13 -11 -10 -6 -11 24 -6 66 12 65 -8 -1 -21 -274 -56 -315 -140 -101
-204 181 -54 425 -80 827 -87 540 -10 973 36 1141 121 76 39 79 71 8 109 l-41
22 33 3 c45 5 30 22 -21 23 l-42 1 33 10 c35 12 43 28 13 28 -27 0 -81 -21
-81 -31 0 -5 11 -11 25 -15 14 -3 25 -10 25 -15 0 -4 16 -24 36 -43 30 -29 34
-37 23 -48 -34 -32 -153 -68 -286 -88 -43 -6 -88 -13 -101 -15 -13 -2 -56 -7
-95 -10 -40 -4 -83 -9 -97 -12 -44 -9 -730 -11 -845 -3 -383 28 -650 85 -650
141 0 17 73 54 140 70 61 14 115 40 122 57 3 6 11 12 19 12 8 0 14 4 14 9 0 5
15 12 33 15 34 8 92 66 64 66 -9 0 -30 -12 -47 -27 l-32 -27 7 32 c7 36 -4 42
-23 12z"/>
<path d="M2078 453 c-10 -2 -18 -8 -18 -13 0 -13 34 -22 38 -11 2 6 10 11 17
11 8 0 17 5 20 10 6 10 -24 12 -57 3z"/>
<path d="M2783 401 l-29 -29 -21 24 c-12 13 -27 24 -34 24 -7 0 -2 -12 12 -27
21 -23 22 -25 4 -18 -27 11 -165 15 -165 5 0 -15 36 -22 130 -26 l95 -3 28 34
c34 43 19 55 -20 16z"/>
<path d="M1758 233 c17 -2 47 -2 65 0 17 2 3 4 -33 4 -36 0 -50 -2 -32 -4z"/>
<path d="M1888 233 c17 -2 47 -2 65 0 17 2 3 4 -33 4 -36 0 -50 -2 -32 -4z"/>
</g>
</svg>
